<?xml version="1.0" encoding="UTF-8" standalone="no"?>
<!-- Created with Inkscape (http://www.inkscape.org/) -->
<svg
   xmlns:svg="http://www.w3.org/2000/svg"
   xmlns="http://www.w3.org/2000/svg"
   version="1.0"
   width="300"
   height="299.99994"
   id="svg3774">
  <defs
     id="defs3776">
    <clipPath
       id="clipPath3000">
      <path
         d="M 51.635,181.488 L 103.828,181.488 L 103.828,233.68099 L 51.635,233.68099 L 51.635,181.488 z"
         id="path3002" />
    </clipPath>
    <clipPath
       id="clipPath2984">
      <path
         d="M 47.905,177.762 L 105.48201,177.762 L 105.48201,236.05001 L 47.905,236.05001 L 47.905,177.762 z"
         id="path2986" />
    </clipPath>
    <clipPath
       id="clipPath2972">
      <path
         d="M 51.635,181.488 L 103.828,181.488 L 103.828,233.68099 L 51.635,233.68099 L 51.635,181.488 z"
         id="path2974" />
    </clipPath>
    <clipPath
       id="clipPath2960">
      <path
         d="M 47.905,177.762 L 105.48201,177.762 L 105.48201,236.05001 L 47.905,236.05001 L 47.905,177.762 z"
         id="path2962" />
    </clipPath>
    <clipPath
       id="clipPath2948">
      <path
         d="M 51.635,181.488 L 103.828,181.488 L 103.828,233.68099 L 51.635,233.68099 L 51.635,181.488 z"
         id="path2950" />
    </clipPath>
    <clipPath
       id="clipPath2934">
      <path
         d="M 47.905,177.762 L 105.48201,177.762 L 105.48201,236.05001 L 47.905,236.05001 L 47.905,177.762 z"
         id="path2936" />
    </clipPath>
    <clipPath
       id="clipPath2924">
      <path
         d="M 0,0 L 850,0 L 850,595 L 0,595 L 0,0 z"
         id="path2926" />
    </clipPath>
    <clipPath
       id="clipPath2914">
      <path
         d="M 51.635,181.488 L 103.828,181.488 L 103.828,233.68099 L 51.635,233.68099 L 51.635,181.488 z"
         id="path2916" />
    </clipPath>
    <clipPath
       id="clipPath2904">
      <path
         d="M 0,0 L 850,0 L 850,595 L 0,595 L 0,0 z"
         id="path2906" />
    </clipPath>
    <clipPath
       id="clipPath2894">
      <path
         d="M 51.635,181.488 L 103.828,181.488 L 103.828,233.68099 L 51.635,233.68099 L 51.635,181.488 z"
         id="path2896" />
    </clipPath>
  </defs>
  <g
     transform="translate(-575.9508,-382.12569)"
     id="layer1">
    <path
       d="M 579.72717,678.34926 L 872.17443,678.34926 L 872.17443,385.902 L 579.72717,385.902 L 579.72717,678.34926 z"
       id="path2898"
       style="fill:none;stroke:#0063a3;stroke-width:7.55273676;stroke-linecap:butt;stroke-linejoin:round;stroke-miterlimit:4;stroke-dasharray:none;stroke-opacity:1" />
    <path
       d="M 588.46972,669.60671 L 863.43188,669.60671 L 863.43188,394.6445 L 588.46972,394.6445 L 588.46972,669.60671 z"
       id="path2908"
       style="fill:#0063a3;fill-opacity:1;fill-rule:nonzero;stroke:none" />
    <path
       d="M 588.46972,669.60671 L 863.43188,669.60671 L 863.43188,394.6445 L 588.46972,394.6445 L 588.46972,669.60671 z"
       id="path2918"
       style="fill:none;stroke:#0063a3;stroke-width:7.04117441;stroke-linecap:butt;stroke-linejoin:round;stroke-miterlimit:4;stroke-dasharray:none;stroke-opacity:1" />
    <path
       d="M 692.85843,581.6955 L 714.9303,585.59257 L 713.82676,595.28353 L 692.20892,584.94306 L 692.85843,581.6955 z"
       id="path2928"
       style="fill:#ffffff;fill-opacity:1;fill-rule:nonzero;stroke:none" />
    <path
       d="M 705.41753,646.98586 C 716.86158,654.13626 731.08187,658.52761 748.60148,658.45867 C 839.95856,658.82081 840.05053,537.71839 840.05053,537.71839 L 840.02179,537.68959 L 840.07927,537.77001 L 839.87234,537.61487 C 846.98249,538.82768 848.42521,529.26893 849.1552,525.64206 C 849.89093,522.01508 848.73566,511.80676 848.66662,506.87506 C 848.96551,500.29378 852.41431,484.56753 852.40276,478.23329 C 852.39701,472.70956 854.472,459.69638 839.56195,463.82906 C 839.39532,460.96092 839.36078,447.39007 839.36078,447.39007 C 839.36078,447.39007 839.1711,437.64744 838.55032,427.62892 C 838.11929,420.78311 836.05005,405.89606 830.94011,390.37099 L 720.51725,390.37099"
       id="path2940"
       style="fill:#ffffff;fill-opacity:1;fill-rule:nonzero;stroke:#ffffff;stroke-width:1.88531029;stroke-linecap:butt;stroke-linejoin:miter;stroke-miterlimit:4;stroke-dasharray:none;stroke-opacity:1" />
    <path
       d="M 583.54607,613.66128 C 607.76196,637.72198 665.30991,666.46721 701.84355,651.82157 C 703.62539,651.10308 705.39,649.965 706.97642,648.51078 C 708.20072,647.38994 709.31581,646.07367 710.25847,644.61945 C 712.62085,640.96379 713.53477,636.53791 712.89675,631.72117 C 712.89675,631.72117 713.06344,628.65754 709.41927,616.11563 C 708.70079,613.30491 710.95971,611.684 713.89114,610.5919 C 720.55295,608.10306 723.73729,599.91806 713.82791,595.28525 C 713.82791,595.28525 692.8136,586.47373 678.24268,577.15638 C 678.24268,577.15638 705.40718,586.25531 722.60495,586.25531 C 724.74317,586.25531 730.34162,587.00253 731.55443,580.31773 C 732.05449,576.80002 728.87591,570.44859 728.87591,565.41343 C 728.87591,565.41343 728.03097,562.7579 733.72713,562.0854 C 734.56058,561.98768 767.47878,558.74012 743.72847,520.94195 C 743.72847,520.94195 731.92229,502.18656 730.77846,461.57767 C 730.77846,451.25444 731.97402,420.97452 721.12199,390.37272"
       id="path2942"
       style="fill:#0063a3;fill-opacity:1;fill-rule:nonzero;stroke:none" />
    <path
       d="M 583.54607,613.66128 C 607.76197,637.72201 665.30991,666.46719 701.84354,651.82162 C 703.62539,651.10313 705.39005,649.96496 706.97641,648.5108 C 708.20072,647.38992 709.31581,646.07372 710.25852,644.61947 C 712.62085,640.96379 713.53477,636.53789 712.89681,631.72116 C 712.89681,631.72116 713.06344,628.65751 709.41927,616.11564 C 708.70078,613.30493 710.95971,611.68404 713.89113,610.59192 C 720.55295,608.10309 723.73728,599.91802 713.82791,595.28522 C 713.82791,595.28522 692.8136,586.47375 678.24268,577.1564 C 678.24268,577.1564 705.40724,586.25528 722.60495,586.25528 C 724.74316,586.25528 730.34162,587.00253 731.55442,580.31776 C 732.05449,576.80005 728.8759,570.44856 728.8759,565.41345 C 728.8759,565.41345 728.03096,562.75789 733.72713,562.08536 C 734.56057,561.98766 767.47878,558.74016 743.72847,520.94195 C 743.72847,520.94195 731.92229,502.18656 730.77846,461.57767 C 730.77846,451.25444 731.97408,420.97446 721.12205,390.37272"
       id="path2954"
       style="fill:none;stroke:#ffffff;stroke-width:4.24769592;stroke-linecap:square;stroke-linejoin:round;stroke-miterlimit:4;stroke-dasharray:none;stroke-opacity:1" />
    <path
       d="M 767.84665,484.3221 C 764.64507,485.02334 765.74867,482.36781 767.88688,479.4019 C 771.9564,473.75171 789.63118,459.7211 799.04624,480.55722 C 800.40274,483.56337 800.66714,485.11531 798.62089,484.72445 C 795.01696,484.04045 784.16493,480.73541 767.84665,484.3221"
       id="path2964"
       style="fill:#0063a3;fill-opacity:1;fill-rule:nonzero;stroke:none" />
    <path
       d="M 654.04748,482.67015 C 650.80567,483.11274 652.11044,480.55493 654.47857,477.7672 C 658.99067,472.46189 677.72882,459.88549 685.44824,481.40561 C 686.56334,484.50948 686.70129,486.0844 684.69527,485.52686 C 681.15456,484.55546 670.60143,480.39973 654.04748,482.67015"
       id="path2966"
       style="fill:#ffffff;fill-opacity:1;fill-rule:nonzero;stroke:none" />
    <path
       d="M 583.23569,615.60579 C 603.8419,638.73534 666.49973,668.33127 702.92421,653.42697 C 704.21743,652.85793 706.58556,651.55892 708.16049,650.09896 C 709.37329,648.96659 710.48264,647.70784 711.4138,646.2478"
       id="path2978"
       style="fill:none;stroke:#ffffff;stroke-width:5.66167927;stroke-linecap:butt;stroke-linejoin:round;stroke-miterlimit:4;stroke-dasharray:none;stroke-opacity:1" />
    <path
       d="M 718.55211,391.67864 C 718.66701,391.37975 717.70711,390.58654 717.79333,390.36812 C 718.35668,390.36812 718.91423,388.97713 718.91423,388.97713 C 731.34693,425.55675 730.46175,465.35519 732.80109,485.21992 C 735.74407,507.75742 745.90635,529.24306 746.23398,529.92706 C 746.8432,536.30148 720.46616,538.20978 720.46616,538.20978 C 720.46616,538.20978 697.10096,456.41721 697.10096,451.73842 C 697.10096,447.52521 715.04589,400.77756 718.55211,391.67864"
       id="path2990"
       style="fill:#0063a3;fill-opacity:1;fill-rule:nonzero;stroke:none" />
    <path
       d="M 707.28795,590.01845 C 704.87384,588.61597 706.17286,585.54659 708.95484,586.24783 C 722.62334,590.07593 739.44169,592.4843 749.57523,592.4843 C 750.91444,592.4843 770.41136,593.36948 789.44265,586.13862 C 791.10954,585.50635 792.05219,585.63856 792.64417,586.6042 C 793.17303,587.76528 792.87414,588.64471 791.73031,589.50114 C 785.05126,594.59953 771.02058,602.17526 749.8109,602.17526 C 731.88321,602.17526 713.3002,593.28326 707.28795,590.01845"
       id="path2994"
       style="fill:#0063a3;fill-opacity:1;fill-rule:nonzero;stroke:none" />
    <path
       d="M 581.18719,676.89505 L 870.71452,676.89505 L 870.71452,387.36772 L 581.18719,387.36772 L 581.18719,676.89505 z"
       id="path3004"
       style="fill:none;stroke:#ffffff;stroke-width:7.48951006;stroke-linecap:butt;stroke-linejoin:round;stroke-miterlimit:4;stroke-dasharray:none;stroke-opacity:1" />
  </g>
</svg>
